<svg width="16" height="16" viewBox="0 0 16 16" fill="none" xmlns="http://www.w3.org/2000/svg">
<path d="M10.8258 7.30598L6.58581 11.546L3.98096 14.1508L2.70096 15.4308C2.42901 15.7028 1.98417 15.7028 1.71214 15.4308L0.204949 13.9236C-0.0670041 13.6516 -0.0670041 13.2068 0.204949 12.9348L8.32979 4.80997C8.50581 4.63718 8.78737 4.63718 8.96339 4.80997L9.09135 4.93798L10.4321 6.27878L10.8258 6.67237C10.9985 6.84837 10.9985 7.12997 10.8258 7.30598Z" fill="#F4B37D"/>
<path d="M10.8514 7.27397C10.8449 7.26118 10.8354 7.25157 10.8258 7.24198L8.96339 5.37958C8.78737 5.20679 8.50581 5.20679 8.32979 5.37958L0.204951 13.5044C0.140967 13.5652 0.0929978 13.6356 0.0609665 13.7124C-0.0541898 13.4564 -0.00622097 13.146 0.204951 12.9348L8.32979 4.80997C8.50581 4.63718 8.78737 4.63718 8.96339 4.80997L9.09136 4.93798L10.4321 6.27878L10.8258 6.67237C10.989 6.83878 10.9985 7.09798 10.8514 7.27397Z" fill="#EA9C5C"/>
<path d="M7.2473 8.25933L9.35602 5.20322L10.4325 6.27974L7.37643 8.38846C7.29154 8.44703 7.18872 8.34422 7.2473 8.25933Z" fill="#F2A764"/>
<path d="M10.6997 6.54563L9.09089 4.9368C9.38278 4.97526 9.63847 4.93225 9.85799 4.7988C9.95526 4.74219 10.0435 4.67206 10.125 4.58155L13.949 0.757507L14.879 1.68752L11.055 5.51156C10.9645 5.59301 10.8943 5.68126 10.8377 5.77853C10.7042 5.998 10.6613 6.25374 10.6997 6.54563Z" fill="#A04747"/>
<path d="M15.3836 1.52234L15.1777 1.72825C15.1076 1.79839 14.9922 1.80066 14.9197 1.72823L13.9083 0.716795C13.8359 0.644372 13.8381 0.52897 13.9083 0.458826L14.1142 0.252922C14.1843 0.182778 14.2997 0.180513 14.3721 0.252936L15.3836 1.26437C15.456 1.3368 15.4537 1.4522 15.3836 1.52234Z" fill="#7F3939"/>
<path d="M10.6997 6.54563L9.09089 4.93679C9.38278 4.97526 9.63847 4.93225 9.85799 4.7988C9.95526 4.74219 10.0435 4.67206 10.125 4.58154L10.3354 4.37111L11.2654 5.30112L11.055 5.51155C10.9645 5.59301 10.8943 5.68126 10.8377 5.77853C10.7042 5.99799 10.6613 6.25374 10.6997 6.54563Z" fill="#7F3939"/>
<path d="M11.0094 3.69644L11.462 3.24389L12.392 4.17388L11.9394 4.62643L11.0094 3.69644Z" fill="#7F3939"/>
<path d="M11.9146 2.79146L12.3649 2.34117L13.2949 3.27116L12.8446 3.72144L11.9146 2.79146Z" fill="#7F3939"/>
<path d="M12.8171 1.88905L13.2697 1.43651L14.1997 2.36649L13.7471 2.81904L12.8171 1.88905Z" fill="#7F3939"/>
<path d="M6.89612 11.044L3.98388 13.9561C3.96248 13.8381 3.95532 13.7164 3.95532 13.5912C3.95532 11.8243 5.72361 10.7665 6.89612 11.044Z" fill="#EA9C5C"/>
<path d="M6.34972 15.3537V15.7979C6.31662 15.8006 6.28628 15.8006 6.25318 15.8006C6.22008 15.8006 6.18974 15.8006 6.15664 15.7979V15.3979C6.18974 15.3951 6.22284 15.3869 6.25318 15.3785C6.28628 15.3703 6.31938 15.3648 6.34972 15.3537Z" fill="#D0D0F7"/>
<path d="M8.73564 13.5895C8.73564 14.5455 8.12811 15.3596 7.27693 15.668C7.20601 15.6958 7.13506 15.7174 7.06105 15.7327C6.92227 15.7698 6.77733 15.7913 6.63237 15.7976C6.59537 15.8006 6.56145 15.8006 6.52444 15.8006C6.48744 15.8006 6.45352 15.8006 6.41651 15.7976C6.27156 15.7913 6.12662 15.7698 5.98784 15.7327C5.91382 15.7174 5.84288 15.6958 5.77196 15.668C4.92078 15.3596 4.31325 14.5455 4.31325 13.5895C4.31325 12.6334 4.92078 11.8192 5.77196 11.5108C5.84288 11.4831 5.91382 11.4616 5.98784 11.446C6.12662 11.409 6.27156 11.3875 6.41651 11.3813C6.45352 11.3783 6.48744 11.3783 6.52444 11.3783C6.56145 11.3783 6.59537 11.3783 6.63237 11.3813C6.77733 11.3875 6.92227 11.409 7.06105 11.446C7.13506 11.4616 7.20601 11.4831 7.27693 11.5108C8.12811 11.8192 8.73564 12.6334 8.73564 13.5895Z" fill="#F05543"/>
<g opacity="0.8">
<path d="M6.34972 11.8478V15.7979C6.31662 15.8006 6.28628 15.8006 6.25318 15.8006C6.22008 15.8006 6.18974 15.8006 6.15664 15.7979V11.8478C6.18974 11.8451 6.22008 11.8451 6.25318 11.8451C6.28628 11.8451 6.31662 11.8451 6.34972 11.8478Z" fill="white"/>
</g>
<g opacity="0.8">
<path d="M7.27598 11.5106V11.5229C7.27598 11.5844 7.22682 11.6305 7.16844 11.6305C7.11006 11.6305 7.06088 11.5844 7.06088 11.5229V11.4461C7.13463 11.4615 7.20531 11.483 7.27598 11.5106Z" fill="white"/>
<path d="M7.16875 12.0074C7.11016 12.0074 7.0608 12.0536 7.0608 12.1152V12.7043C7.0608 12.7629 7.11016 12.8122 7.16875 12.8122C7.22735 12.8122 7.27668 12.7629 7.27668 12.7043V12.1152C7.27668 12.0536 7.22735 12.0074 7.16875 12.0074ZM7.16875 13.1854C7.11016 13.1854 7.0608 13.2348 7.0608 13.2934V13.8855C7.0608 13.944 7.11016 13.9934 7.16875 13.9934C7.22735 13.9934 7.27668 13.944 7.27668 13.8855V13.2934C7.27668 13.2348 7.22735 13.1854 7.16875 13.1854ZM7.16875 14.3666C7.11016 14.3666 7.0608 14.4158 7.0608 14.4745V15.0635C7.0608 15.079 7.06389 15.0974 7.07315 15.1097C7.08857 15.1467 7.12557 15.1714 7.16875 15.1714C7.22735 15.1714 7.27668 15.1252 7.27668 15.0635V14.4745C7.27668 14.4158 7.22735 14.3666 7.16875 14.3666Z" fill="white"/>
<path d="M7.2759 15.6552V15.6676C7.20523 15.6953 7.13455 15.7168 7.0608 15.7321V15.6552C7.0608 15.5939 7.10998 15.5478 7.16836 15.5478C7.22675 15.5478 7.2759 15.5939 7.2759 15.6552Z" fill="white"/>
<path d="M5.987 11.4461V11.5229C5.987 11.5844 5.9409 11.6305 5.87944 11.6305C5.82107 11.6305 5.7719 11.5844 5.7719 11.5229V11.5106C5.84256 11.483 5.91325 11.4616 5.987 11.4461Z" fill="white"/>
<path d="M5.87967 12.0074C5.82109 12.0074 5.77173 12.0536 5.77173 12.1152V12.7043C5.77173 12.7629 5.82109 12.8123 5.87967 12.8123C5.94135 12.8123 5.98762 12.7629 5.98762 12.7043V12.1152C5.98762 12.0536 5.94135 12.0074 5.87967 12.0074ZM5.87967 13.1854C5.82109 13.1854 5.77173 13.2348 5.77173 13.2934V13.8855C5.77173 13.9441 5.82109 13.9935 5.87967 13.9935C5.94135 13.9935 5.98762 13.9441 5.98762 13.8855V13.2934C5.98762 13.2348 5.94135 13.1854 5.87967 13.1854ZM5.87967 14.3666C5.82109 14.3666 5.77173 14.4158 5.77173 14.4746V15.0635C5.77173 15.1252 5.82109 15.1715 5.87967 15.1715C5.94135 15.1715 5.98762 15.1252 5.98762 15.0635V14.4746C5.98762 14.4158 5.94135 14.3666 5.87967 14.3666Z" fill="white"/>
<path d="M5.98683 15.6553V15.7321C5.91309 15.7168 5.8424 15.6953 5.77173 15.6676V15.6553C5.77173 15.5939 5.82091 15.5479 5.87928 15.5479C5.94073 15.5479 5.98683 15.5939 5.98683 15.6553Z" fill="white"/>
</g>
<path d="M8.73575 13.5894C8.73575 14.5455 8.12822 15.3596 7.27705 15.668C7.20612 15.6958 7.13518 15.7173 7.06116 15.7327C6.92238 15.7697 6.77745 15.7913 6.63249 15.7976C6.59548 15.8006 6.56156 15.8006 6.52456 15.8006C6.48755 15.8006 6.45363 15.8006 6.41663 15.7976C6.27167 15.7913 6.12673 15.7697 5.98795 15.7327C5.91394 15.7173 5.843 15.6958 5.77207 15.668C5.45443 15.554 5.17069 15.3657 4.9394 15.1314C5.035 15.1838 5.13369 15.227 5.23547 15.2639C5.30639 15.2918 5.37733 15.3133 5.45135 15.3287C5.59013 15.3657 5.73507 15.3874 5.88 15.3936C5.91703 15.3966 5.95095 15.3966 5.98795 15.3966C6.02496 15.3966 6.05888 15.3966 6.09588 15.3936C6.24084 15.3874 6.38578 15.3657 6.52456 15.3287C6.59857 15.3133 6.66951 15.2918 6.74044 15.2639C7.59162 14.9555 8.19915 14.1415 8.19915 13.1854C8.19915 12.5872 7.96168 12.0443 7.57618 11.6465C8.267 12.0198 8.73575 12.7505 8.73575 13.5894Z" fill="#E24B40"/>
<path d="M5.77321 15.6709V15.7399C5.70701 15.7261 5.64356 15.7069 5.58012 15.682V15.6709C5.58012 15.6158 5.62426 15.5745 5.67666 15.5745C5.73183 15.5745 5.77321 15.6158 5.77321 15.6709Z" fill="#D0D0F7"/>
<path d="M6.92624 15.0641V15.1413C6.92624 15.1965 6.88211 15.2379 6.8297 15.2379C6.79108 15.2379 6.75798 15.2158 6.74419 15.1827C6.80763 15.1468 6.86831 15.1083 6.92624 15.0641Z" fill="#D0D0F7"/>
<path d="M6.92624 15.6709V15.682C6.8628 15.7069 6.79935 15.7261 6.73315 15.7399V15.6709C6.73315 15.6158 6.77729 15.5745 6.8297 15.5745C6.88211 15.5745 6.92624 15.6158 6.92624 15.6709Z" fill="#D0D0F7"/>
<g opacity="0.4">
<path d="M8.59889 8.98257L7.5354 10.0991C7.45624 10.1822 7.32494 10.1854 7.24183 10.1062C7.15873 10.0271 7.15553 9.89576 7.23469 9.81266L8.29818 8.69615C8.37734 8.61304 8.50864 8.60985 8.59175 8.68901C8.67485 8.76817 8.67805 8.89947 8.59889 8.98257Z" fill="white"/>
</g>
<g opacity="0.4">
<path d="M6.95175 10.7118L6.84756 10.8212C6.7684 10.9043 6.6371 10.9075 6.55399 10.8283C6.47088 10.7492 6.46769 10.6179 6.54685 10.5348L6.65104 10.4254C6.7302 10.3423 6.8615 10.3391 6.94461 10.4183C7.02771 10.4974 7.03091 10.6287 6.95175 10.7118Z" fill="white"/>
</g>
</svg>
