<svg width="16" height="16" viewBox="0 0 16 16" fill="none" xmlns="http://www.w3.org/2000/svg">
<g clip-path="url(#clip0_0_532)">
<path d="M11.1073 7.30594L6.86728 11.5459L4.26244 14.1507L2.98244 15.4307C2.71048 15.7027 2.26564 15.7027 1.99361 15.4307L0.48642 13.9235C0.214467 13.6515 0.214467 13.2067 0.48642 12.9347L8.61126 4.80992C8.78728 4.63713 9.06884 4.63713 9.24486 4.80992L9.37283 4.93793L10.7136 6.27873L11.1073 6.67233C11.28 6.84832 11.28 7.12992 11.1073 7.30594Z" fill="#F4B37D"/>
<path d="M11.1328 7.27393C11.1264 7.26113 11.1169 7.25152 11.1073 7.24193L9.24485 5.37953C9.06884 5.20674 8.78727 5.20674 8.61126 5.37953L0.486415 13.5043C0.42243 13.5651 0.374461 13.6355 0.34243 13.7123C0.227274 13.4563 0.275243 13.1459 0.486415 12.9347L8.61126 4.80992C8.78727 4.63713 9.06884 4.63713 9.24485 4.80992L9.37282 4.93793L10.7136 6.27873L11.1073 6.67233C11.2705 6.83873 11.28 7.09793 11.1328 7.27393Z" fill="#EA9C5C"/>
<path d="M7.52876 8.25929L9.63748 5.20317L10.714 6.2797L7.65789 8.38842C7.573 8.44699 7.47018 8.34418 7.52876 8.25929Z" fill="#F2A764"/>
<path d="M10.9812 6.54559L9.37236 4.93675C9.66425 4.97522 9.91994 4.93221 10.1395 4.79876C10.2367 4.74215 10.325 4.67202 10.4064 4.5815L14.2305 0.757462L15.1605 1.68747L11.3364 5.51151C11.2459 5.59297 11.1758 5.68122 11.1192 5.77849C10.9857 5.99795 10.9427 6.2537 10.9812 6.54559Z" fill="#A04747"/>
<path d="M15.6651 1.5223L15.4592 1.7282C15.389 1.79834 15.2736 1.80061 15.2012 1.72819L14.1898 0.716748C14.1173 0.644324 14.1196 0.528922 14.1897 0.458778L14.3956 0.252874C14.4658 0.18273 14.5812 0.180465 14.6536 0.252888L15.6651 1.26433C15.7375 1.33675 15.7352 1.45215 15.6651 1.5223Z" fill="#7F3939"/>
<path d="M10.9812 6.54559L9.37236 4.93675C9.66425 4.97522 9.91994 4.93221 10.1395 4.79876C10.2367 4.74215 10.325 4.67202 10.4064 4.5815L10.6169 4.37107L11.5469 5.30108L11.3364 5.51151C11.2459 5.59297 11.1758 5.68122 11.1192 5.77849C10.9857 5.99795 10.9427 6.2537 10.9812 6.54559Z" fill="#7F3939"/>
<path d="M11.2909 3.6964L11.7435 3.24385L12.6735 4.17383L12.2209 4.62638L11.2909 3.6964Z" fill="#7F3939"/>
<path d="M12.196 2.79141L12.6463 2.34112L13.5763 3.27111L13.126 3.7214L12.196 2.79141Z" fill="#7F3939"/>
<path d="M13.0986 1.889L13.5511 1.43646L14.4811 2.36644L14.0286 2.81899L13.0986 1.889Z" fill="#7F3939"/>
<g opacity="0.4">
<path d="M8.88035 8.98252L7.81686 10.099C7.7377 10.1821 7.6064 10.1853 7.5233 10.1062C7.44019 10.027 7.437 9.89571 7.51616 9.8126L8.57965 8.69609C8.65881 8.61299 8.79011 8.6098 8.87321 8.68896C8.95632 8.76811 8.95951 8.89942 8.88035 8.98252Z" fill="white"/>
</g>
<g opacity="0.4">
<path d="M7.23321 10.7118L7.12901 10.8212C7.04985 10.9043 6.91855 10.9075 6.83545 10.8283C6.75234 10.7491 6.74915 10.6178 6.82831 10.5347L6.9325 10.4253C7.01166 10.3422 7.14296 10.339 7.22607 10.4182C7.30917 10.4974 7.31236 10.6287 7.23321 10.7118Z" fill="white"/>
</g>
</g>
<defs>
<clipPath id="clip0_0_532">
<rect width="16" height="16" fill="white"/>
</clipPath>
</defs>
</svg>
