<svg width="15" height="20" viewBox="0 0 15 20" fill="none" xmlns="http://www.w3.org/2000/svg">
<path d="M8.09388 11.6214V12.9072C7.99807 12.915 7.91026 12.915 7.81445 12.915C7.71864 12.915 7.63082 12.915 7.53501 12.9072V11.7493C7.63082 11.7411 7.72663 11.7173 7.81445 11.6931C7.91026 11.6693 8.00607 11.6534 8.09388 11.6214Z" fill="#D0D0F7"/>
<path d="M14.9998 6.51461C14.9998 9.28196 13.2413 11.6383 10.7775 12.5309C10.5722 12.6116 10.3669 12.6739 10.1526 12.7184C9.75091 12.8256 9.33139 12.8879 8.91181 12.9062C8.80469 12.9149 8.70651 12.9149 8.5994 12.9149C8.49228 12.9149 8.3941 12.9149 8.28698 12.9062C7.8674 12.8879 7.44788 12.8256 7.04617 12.7184C6.83194 12.6739 6.62659 12.6116 6.42129 12.5309C3.95752 11.6383 2.199 9.28196 2.199 6.51461C2.199 3.74725 3.95752 1.39049 6.42129 0.497828C6.62659 0.417628 6.83194 0.355296 7.04617 0.3104C7.44788 0.203176 7.8674 0.140848 8.28698 0.122976C8.3941 0.114258 8.49228 0.114258 8.5994 0.114258C8.70651 0.114258 8.80469 0.114258 8.91181 0.122976C9.33139 0.140848 9.75091 0.203176 10.1526 0.3104C10.3669 0.355296 10.5722 0.417628 10.7775 0.497828C13.2413 1.39049 14.9998 3.74725 14.9998 6.51461Z" fill="#F05543"/>
<g opacity="0.8">
<path d="M8.09388 1.47325V12.9072C7.99807 12.915 7.91026 12.915 7.81445 12.915C7.71864 12.915 7.63082 12.915 7.53501 12.9072V1.47325C7.63082 1.46545 7.71864 1.46545 7.81445 1.46545C7.91026 1.46545 7.99807 1.46545 8.09388 1.47325Z" fill="white"/>
</g>
<g opacity="0.8">
<path d="M10.7752 0.49745V0.533059C10.7752 0.711123 10.6329 0.844453 10.4639 0.844453C10.2949 0.844453 10.1525 0.711123 10.1525 0.533059V0.310699C10.366 0.355433 10.5706 0.41754 10.7752 0.49745Z" fill="white"/>
<path d="M10.4649 1.93538C10.2953 1.93538 10.1525 2.06919 10.1525 2.24746V3.9526C10.1525 4.12215 10.2953 4.26512 10.4649 4.26512C10.6346 4.26512 10.7774 4.12215 10.7774 3.9526V2.24746C10.7774 2.06919 10.6346 1.93538 10.4649 1.93538ZM10.4649 5.34521C10.2953 5.34521 10.1525 5.48817 10.1525 5.65772V7.37158C10.1525 7.54113 10.2953 7.68409 10.4649 7.68409C10.6346 7.68409 10.7774 7.54113 10.7774 7.37158V5.65772C10.7774 5.48817 10.6346 5.34521 10.4649 5.34521ZM10.4649 8.76418C10.2953 8.76418 10.1525 8.90672 10.1525 9.07671V10.7814C10.1525 10.8263 10.1614 10.8795 10.1882 10.9152C10.2328 11.0224 10.34 11.0939 10.4649 11.0939C10.6346 11.0939 10.7774 10.9601 10.7774 10.7814V9.07671C10.7774 8.90672 10.6346 8.76418 10.4649 8.76418Z" fill="white"/>
<path d="M10.7751 12.4941V12.5297C10.5705 12.6101 10.3659 12.6722 10.1525 12.7165V12.4941C10.1525 12.3165 10.2948 12.1832 10.4638 12.1832C10.6328 12.1832 10.7751 12.3165 10.7751 12.4941Z" fill="white"/>
<path d="M7.0441 0.310745V0.533105C7.0441 0.711169 6.91066 0.844499 6.73276 0.844499C6.56382 0.844499 6.42148 0.711169 6.42148 0.533105V0.497496C6.62603 0.417586 6.83064 0.355479 7.0441 0.310745Z" fill="white"/>
<path d="M6.73306 1.93532C6.5635 1.93532 6.42065 2.06913 6.42065 2.2474V3.95254C6.42065 4.12209 6.5635 4.26505 6.73306 4.26505C6.9116 4.26505 7.04552 4.12209 7.04552 3.95254V2.2474C7.04552 2.06913 6.9116 1.93532 6.73306 1.93532ZM6.73306 5.34514C6.5635 5.34514 6.42065 5.48811 6.42065 5.65766V7.37151C6.42065 7.54107 6.5635 7.68403 6.73306 7.68403C6.9116 7.68403 7.04552 7.54107 7.04552 7.37151V5.65766C7.04552 5.48811 6.9116 5.34514 6.73306 5.34514ZM6.73306 8.76412C6.5635 8.76412 6.42065 8.90666 6.42065 9.07665V10.7813C6.42065 10.96 6.5635 11.0939 6.73306 11.0939C6.9116 11.0939 7.04552 10.96 7.04552 10.7813V9.07665C7.04552 8.90666 6.9116 8.76412 6.73306 8.76412Z" fill="white"/>
<path d="M7.04326 12.4942V12.7165C6.82981 12.6722 6.6252 12.6101 6.42065 12.5298V12.4942C6.42065 12.3165 6.56299 12.1832 6.73193 12.1832C6.90983 12.1832 7.04326 12.3165 7.04326 12.4942Z" fill="white"/>
</g>
<path d="M15.0003 6.51456C15.0003 9.28191 13.2417 11.6382 10.778 12.5309C10.5727 12.6115 10.3673 12.6739 10.1531 12.7183C9.75137 12.8256 9.33184 12.8879 8.91226 12.9062C8.80515 12.9149 8.70697 12.9149 8.59985 12.9149C8.49274 12.9149 8.39456 12.9149 8.28744 12.9062C7.86786 12.8879 7.44833 12.8256 7.04662 12.7183C6.83239 12.6739 6.62704 12.6115 6.42175 12.5309C5.50233 12.2009 4.68103 11.6561 4.01154 10.9779C4.28826 11.1296 4.57392 11.2547 4.86852 11.3615C5.07381 11.4421 5.27916 11.5044 5.49339 11.5489C5.8951 11.6561 6.31463 11.7189 6.73416 11.7367C6.84133 11.7455 6.93951 11.7455 7.04662 11.7455C7.15374 11.7455 7.25192 11.7455 7.35903 11.7367C7.77861 11.7189 8.19814 11.6561 8.59985 11.5489C8.81408 11.5044 9.01943 11.4421 9.22473 11.3615C11.6885 10.4688 13.447 8.11247 13.447 5.34512C13.447 3.6134 12.7597 2.04208 11.6438 0.890503C13.6434 1.97103 15.0003 4.08632 15.0003 6.51456Z" fill="#E24B40"/>
<path d="M6.4248 12.5394V12.7391C6.23318 12.6993 6.0495 12.6435 5.86588 12.5714V12.5394C5.86588 12.38 5.99365 12.2603 6.14531 12.2603C6.30501 12.2603 6.4248 12.38 6.4248 12.5394Z" fill="#D0D0F7"/>
<path d="M9.76224 10.7833V11.0067C9.76224 11.1665 9.63451 11.2862 9.48281 11.2862C9.37101 11.2862 9.2752 11.2223 9.23529 11.1263C9.41892 11.0226 9.59455 10.9111 9.76224 10.7833Z" fill="#D0D0F7"/>
<path d="M9.76244 12.5394V12.5714C9.57882 12.6435 9.39514 12.6993 9.20352 12.7391V12.5394C9.20352 12.38 9.3313 12.2603 9.48301 12.2603C9.63471 12.2603 9.76244 12.38 9.76244 12.5394Z" fill="#D0D0F7"/>
<path d="M6.45756 13.74L4.3051 17.0099C4.23874 17.1099 4.26395 17.2347 4.36393 17.301C4.4639 17.3674 4.58866 17.3422 4.65501 17.2422L6.80747 13.9722C6.87383 13.8722 6.84862 13.7475 6.74864 13.6811C6.64867 13.6148 6.52392 13.64 6.45756 13.74Z" fill="#F05543"/>
<path d="M5.56596 13.0761C5.46599 13.0097 5.34124 13.0349 5.27488 13.1349L3.45001 15.8842C3.38365 15.9842 3.40887 16.1089 3.50884 16.1753C3.60882 16.2417 3.73357 16.2165 3.79992 16.1165L5.62479 13.3672C5.69115 13.2672 5.66594 13.1424 5.56596 13.0761Z" fill="#F05543"/>
<path d="M4.48279 12.3213C4.38282 12.2549 4.25807 12.2801 4.19171 12.3801L0.869132 17.1418C0.802774 17.2417 0.827986 17.3665 0.927961 17.4328C1.02794 17.4992 1.15269 17.474 1.21905 17.374L4.54162 12.6124C4.61218 12.5332 4.58277 12.3876 4.48279 12.3213Z" fill="#F05543"/>
<path d="M2.36316 13.2906L3.64057 11.3661C3.70693 11.2661 3.68171 11.1413 3.58174 11.075C3.48176 11.0086 3.35701 11.0338 3.29065 11.1338L2.01325 13.0583C1.94689 13.1583 1.9721 13.2831 2.07208 13.3494C2.17205 13.4158 2.2968 13.3906 2.36316 13.2906Z" fill="#F05543"/>
<path d="M1.18106 15.0444L1.7617 14.1696C1.82806 14.0696 1.80284 13.9449 1.70287 13.8785C1.60289 13.8122 1.47814 13.8374 1.41179 13.9374L0.831146 14.8121C0.764787 14.9121 0.79 15.0369 0.889975 15.1032C0.969159 15.1738 1.1147 15.1444 1.18106 15.0444Z" fill="#F05543"/>
<path d="M3.38012 16.3962C3.28014 16.3299 3.15539 16.3551 3.08903 16.4551L2.50839 17.3298C2.44203 17.4298 2.46725 17.5546 2.56722 17.6209C2.6672 17.6873 2.79195 17.6621 2.85831 17.5621L3.43894 16.6873C3.50951 16.6081 3.48009 16.4626 3.38012 16.3962Z" fill="#F05543"/>
<path d="M3.74479 17.7723L3.16415 18.6471C3.0978 18.7471 3.12301 18.8718 3.22298 18.9382C3.32296 19.0046 3.44771 18.9793 3.51407 18.8794L4.09471 18.0046C4.16107 17.9046 4.13585 17.7799 4.03588 17.7135C3.9359 17.6471 3.81115 17.6724 3.74479 17.7723Z" fill="#F05543"/>
</svg>
