<svg width="14" height="14" viewBox="0 0 14 14" fill="none" xmlns="http://www.w3.org/2000/svg">
<g clip-path="url(#clip0_1_904)">
<path opacity="0.2" d="M6.91033 12.8236L3.50778 13.0679C1.30128 13.3394 1.50006 13 1.30128 11.0657L1.06399 7.76054C1.04236 7.45929 1.26904 7.19753 1.57029 7.1759L6.47953 6.82344C6.78077 6.80181 7.04254 7.02849 7.06416 7.32974L7.41663 12.239C7.43825 12.5402 7.21157 12.802 6.91033 12.8236ZM13.2634 3.87209L9.92881 0.984211C9.70049 0.786488 9.35513 0.811289 9.15741 1.03961L5.93528 4.76019C5.73756 4.98851 5.76236 5.33389 5.99068 5.53161L9.71126 8.75375C9.93958 8.95147 10.285 8.92667 10.4827 8.69835L13.7034 4.97935C13.5878 4.59531 13.4401 4.22521 13.2634 3.87209Z" fill="url(#paint0_linear_1_904)"/>
<path d="M7.38284 6.83594V11.7578C7.38284 12.0599 7.13801 12.3047 6.83597 12.3047H2.00003C1.50003 12.3047 1.36722 12 1.36722 11.7578C1.36722 11.5156 1.36722 6.83594 1.36722 6.83594C1.36722 6.5339 1.61205 6.28906 1.91409 6.28906H6.83597C7.13801 6.28906 7.38284 6.5339 7.38284 6.83594ZM13.8399 3.64046L10.3596 0.160179C10.146 -0.0533753 9.79973 -0.0533753 9.58617 0.160179L6.10586 3.64046C5.89231 3.85402 5.89231 4.2003 6.10586 4.41386L9.58615 7.89414C9.79973 8.1077 10.146 8.1077 10.3595 7.89414L13.8398 4.41386C14.0534 4.2003 14.0534 3.85405 13.8399 3.64046Z" fill="url(#paint1_linear_1_904)"/>
<path d="M7.38281 6.83594V11.7578C7.38281 12.0599 7.13798 12.3047 6.83594 12.3047H3.11719C2.81515 12.3047 2.57031 12.0599 2.57031 11.7578V6.83594C2.57031 6.5339 2.81515 6.28906 3.11719 6.28906H6.83594C7.13798 6.28906 7.38281 6.5339 7.38281 6.83594ZM13.8398 3.64047L11.2103 1.0109C10.9967 0.797344 10.6504 0.797344 10.4369 1.0109L6.95658 4.49121C6.743 4.70477 6.743 5.05105 6.95658 5.2646L9.58614 7.89417C9.79973 8.10772 10.146 8.10772 10.3595 7.89417L13.8398 4.41388C14.0534 4.2003 14.0534 3.85405 13.8398 3.64047Z" fill="url(#paint2_linear_1_904)"/>
<path d="M5.05859 9.29688C5.05859 9.67441 4.75254 9.98047 4.375 9.98047C3.99746 9.98047 3.69141 9.67441 3.69141 9.29688C3.69141 8.91934 3.99746 8.61328 4.375 8.61328C4.75254 8.61328 5.05859 8.91934 5.05859 9.29688ZM2.87109 7.10938C2.49356 7.10938 2.1875 7.41543 2.1875 7.79297C2.1875 8.1705 2.49356 8.47656 2.87109 8.47656C3.24863 8.47656 3.55469 8.1705 3.55469 7.79297C3.55469 7.41543 3.24863 7.10938 2.87109 7.10938ZM5.87891 10.1172C5.50137 10.1172 5.19531 10.4232 5.19531 10.8008C5.19531 11.1783 5.50137 11.4844 5.87891 11.4844C6.25644 11.4844 6.5625 11.1783 6.5625 10.8008C6.5625 10.4232 6.25644 10.1172 5.87891 10.1172ZM5.87891 7.10938C5.50137 7.10938 5.19531 7.41543 5.19531 7.79297C5.19531 8.1705 5.50137 8.47656 5.87891 8.47656C6.25644 8.47656 6.5625 8.1705 6.5625 7.79297C6.5625 7.41543 6.25644 7.10938 5.87891 7.10938ZM2.87109 10.1172C2.49356 10.1172 2.1875 10.4232 2.1875 10.8008C2.1875 11.1783 2.49356 11.4844 2.87109 11.4844C3.24863 11.4844 3.55469 11.1783 3.55469 10.8008C3.55469 10.4232 3.24863 10.1172 2.87109 10.1172ZM9.48946 3.54381C9.2225 3.81076 9.2225 4.24359 9.48946 4.51054C9.75641 4.7775 10.1892 4.7775 10.4562 4.51054C10.7232 4.24359 10.7232 3.81076 10.4562 3.54381C10.1892 3.27682 9.75641 3.27682 9.48946 3.54381ZM10.4562 2.38369C10.7232 2.11673 10.7232 1.68391 10.4562 1.41695C10.1892 1.15 9.75641 1.15 9.48946 1.41695C9.2225 1.68391 9.2225 2.11673 9.48946 2.38369C9.75641 2.65065 10.1892 2.65065 10.4562 2.38369ZM9.48946 5.67063C9.2225 5.93759 9.2225 6.37041 9.48946 6.63737C9.75641 6.90432 10.1892 6.90432 10.4562 6.63737C10.7232 6.37041 10.7232 5.93759 10.4562 5.67063C10.1892 5.40367 9.75641 5.40367 9.48946 5.67063Z" fill="white"/>
</g>
<defs>
<linearGradient id="paint0_linear_1_904" x1="7.38283" y1="13.0694" x2="7.38283" y2="0.849643" gradientUnits="userSpaceOnUse">
<stop stop-color="#FF9900"/>
<stop offset="0.11" stop-color="#FFA200"/>
<stop offset="0.37" stop-color="#FFB300"/>
<stop offset="0.65" stop-color="#FFBD00"/>
<stop offset="1" stop-color="#FFC100"/>
</linearGradient>
<linearGradient id="paint1_linear_1_904" x1="7.68347" y1="12.3062" x2="7.68347" y2="-0.00108261" gradientUnits="userSpaceOnUse">
<stop stop-color="#FF9900"/>
<stop offset="0.11" stop-color="#FFA200"/>
<stop offset="0.37" stop-color="#FFB300"/>
<stop offset="0.65" stop-color="#FFBD00"/>
<stop offset="1" stop-color="#FFC100"/>
</linearGradient>
<linearGradient id="paint2_linear_1_904" x1="8.28502" y1="12.3061" x2="8.28502" y2="0.849713" gradientUnits="userSpaceOnUse">
<stop stop-color="#FF9900"/>
<stop offset="0.11" stop-color="#FFA200"/>
<stop offset="0.37" stop-color="#FFB300"/>
<stop offset="0.65" stop-color="#FFBD00"/>
<stop offset="1" stop-color="#FFC100"/>
</linearGradient>
<clipPath id="clip0_1_904">
<rect width="14" height="14" fill="white"/>
</clipPath>
</defs>
</svg>
