<svg width="15" height="15" viewBox="0 0 15 15" fill="none" xmlns="http://www.w3.org/2000/svg">
<g clip-path="url(#clip0_0_676)">
<path opacity="0.1" d="M7.84746 12.335C10.63 12.335 12.8857 10.0793 12.8857 7.29671C12.8857 4.51415 10.63 2.25845 7.84746 2.25845C5.06491 2.25845 2.8092 4.51415 2.8092 7.29671C2.8092 10.0793 5.06491 12.335 7.84746 12.335Z" fill="#F05543"/>
<path opacity="0.1" d="M4.285 10.8593C6.25256 12.8269 9.44261 12.8269 11.4102 10.8593C13.3777 8.89174 13.3777 5.70169 11.4102 3.73414C9.44261 1.76658 2.31745 8.89174 4.285 10.8593Z" fill="#F05543"/>
<path opacity="0.1" d="M11.4946 3.82097C13.377 5.79445 13.3489 8.92041 11.41 10.8593C9.47108 12.7982 6.34512 12.8264 4.37163 10.944L11.4946 3.82097Z" fill="#F05543"/>
<path d="M7.20306 12.3048C6.92365 11.6344 6.46933 10.9694 5.88115 10.3813C5.09653 9.59667 4.17519 9.04887 3.28688 8.83886C3.19513 8.81717 3.10507 8.79942 3.01684 8.78557C2.96682 8.77773 2.92538 8.82542 2.94085 8.87363C3.09259 9.34714 3.31456 9.80303 3.60665 10.225C3.85673 10.5561 3.60665 10.225 3.82496 10.5169C3.94229 10.6631 4.06825 10.8047 4.20386 10.9403C4.50523 11.2416 4.83474 11.4977 5.18383 11.7087C5.51177 11.8909 5.18383 11.7087 5.51177 11.8909C6.0252 12.152 6.57317 12.3217 7.13152 12.3996C7.18392 12.4069 7.22343 12.3536 7.20306 12.3048Z" fill="#F05543"/>
<path d="M5.18397 11.7087C5.51191 11.8909 5.18397 11.7087 5.51191 11.8909C6.02534 12.152 6.57331 12.3217 7.13166 12.3996C7.18406 12.4069 7.22357 12.3536 7.2032 12.3047C6.92379 11.6344 6.46947 10.9694 5.88129 10.3813C5.54873 10.0487 5.19157 9.7589 4.82281 9.51912L3.82507 10.5169C3.9424 10.6631 4.06837 10.8046 4.20398 10.9402C4.50537 11.2416 4.83488 11.4976 5.18397 11.7087Z" fill="#F05543"/>
<path d="M7.1314 12.3995C6.06053 12.2502 5.02742 11.7639 4.20377 10.9403C4.17851 10.915 4.15326 10.8893 4.12849 10.8635L5.20393 9.78811C5.43768 9.9663 5.66446 10.1649 5.88113 10.3814C6.46935 10.9694 6.92362 11.6345 7.20306 12.3048C7.22351 12.3536 7.18383 12.407 7.1314 12.3995Z" fill="#F05543"/>
<path d="M6.41737 10.9854L5.51186 11.8909L5.51188 11.891C6.02531 12.1521 6.57323 12.3217 7.13151 12.3995C7.18393 12.407 7.22361 12.3536 7.20317 12.3048C7.01583 11.8554 6.74957 11.4085 6.41737 10.9854Z" fill="#F05543"/>
<path d="M9.16333 7.09911C7.86891 5.80469 7.63345 3.84639 8.45655 2.31019C8.4964 2.23581 8.57932 2.19548 8.66264 2.20876C9.69809 2.37375 10.6929 2.85498 11.491 3.65307C12.6892 4.85123 13.1736 6.49259 12.945 8.04938C12.9327 8.13326 12.869 8.20047 12.7857 8.21608C11.5124 8.45442 10.1464 8.0822 9.16333 7.09911Z" fill="#F05543"/>
<path d="M12.945 8.04941C12.9327 8.13334 12.869 8.20067 12.7858 8.21606C11.5124 8.45438 10.1465 8.08235 9.16341 7.09926C8.87363 6.80948 8.63699 6.48627 8.45326 6.14214L11.2063 3.3891C11.3037 3.47279 11.3987 3.5608 11.491 3.65315C12.6894 4.85123 13.1737 6.49276 12.945 8.04941Z" fill="#F05543"/>
<path d="M6.30988 9.95262C5.44679 9.08953 4.42274 8.48445 3.42643 8.24887C3.23303 8.20313 3.04468 8.17223 2.86242 8.15583C2.80495 8.15066 2.75815 8.10631 2.74976 8.0492C2.5212 6.49248 3.00585 4.85121 4.20393 3.65313C5.15506 2.702 6.38549 2.20057 7.63121 2.14858C7.7346 2.14427 7.80715 2.25088 7.76548 2.3456C7.01301 4.05596 7.33597 6.12911 8.73467 7.52781C9.77444 8.56758 11.1869 9.01269 12.5461 8.86367C12.6487 8.85241 12.7284 8.95373 12.6933 9.05086C12.4443 9.74042 12.0437 10.3875 11.491 10.9402C10.5228 11.9085 9.26505 12.4105 7.99643 12.4469C7.94122 12.4485 7.89211 12.4131 7.87389 12.361C7.57951 11.5192 7.03616 10.6789 6.30988 9.95262Z" fill="#F05543"/>
<path d="M7.99647 12.4471C9.26529 12.4106 10.523 11.9085 11.4911 10.9403C12.0438 10.3876 12.4445 9.74062 12.6937 9.05077C12.7177 8.98334 12.6871 8.91389 12.6313 8.88159C12.6068 8.86731 12.5776 8.86045 12.5462 8.86387C11.1871 9.01246 9.77453 8.56752 8.7349 7.52789C8.57402 7.36701 8.42742 7.19754 8.29539 7.02038L5.81549 9.50028C5.98496 9.64173 6.15041 9.7929 6.31016 9.95265C7.02858 10.6711 7.5681 11.5015 7.86445 12.3345C7.8676 12.3434 7.87073 12.3523 7.87388 12.3611C7.89218 12.4131 7.94133 12.4486 7.99647 12.4471Z" fill="#F05543"/>
<path d="M2.0456 10C0.545654 6 2.44563 2.8 4.04563 2" stroke="black" stroke-width="0.5" stroke-miterlimit="1" stroke-linejoin="round"/>
<path d="M12.5431 2.80882C15.0272 6.28431 14.0202 9.86703 12.6817 11.0539" stroke="black" stroke-width="0.5" stroke-miterlimit="1" stroke-linejoin="round"/>
<path d="M4.77065 1.44479L3.96681 2.97901L3.04006 1.51575L4.77065 1.44479Z" fill="black"/>
<path d="M12.1251 11.7779L12.5045 10.0879L13.7784 11.2614L12.1251 11.7779Z" fill="black"/>
</g>
<defs>
<clipPath id="clip0_0_676">
<rect width="15" height="15" fill="white"/>
</clipPath>
</defs>
</svg>
