<svg width="14" height="14" viewBox="0 0 14 14" fill="none" xmlns="http://www.w3.org/2000/svg">
<path d="M12.6722 4.9L0.710938 4.43188L9.18203 3.17188L9.56047 3.11609L12.3452 2.70156L12.6722 4.9Z" fill="#FBA616"/>
<path d="M9.50469 4.03703C9.49526 4.03826 9.48577 4.03899 9.47626 4.03922C9.43028 4.03912 9.38587 4.02249 9.35114 3.99237C9.3164 3.96226 9.29365 3.92065 9.28704 3.87516L9.18204 3.17187L9.56048 3.11609L9.66548 3.81937C9.67262 3.8695 9.65976 3.92042 9.62967 3.96114C9.59959 4.00186 9.5547 4.02912 9.50469 4.03703Z" fill="#FBDD6B"/>
<path d="M12.542 7.11812C12.3942 7.26587 12.2936 7.45412 12.2528 7.65907C12.212 7.86402 12.2329 8.07647 12.3129 8.26953C12.3929 8.4626 12.5283 8.62761 12.702 8.7437C12.8758 8.85979 13.0801 8.92174 13.2891 8.92172V11.2984H0.710938V8.92172C0.99101 8.92172 1.25961 8.81046 1.45765 8.61242C1.65569 8.41438 1.76695 8.14578 1.76695 7.8657C1.76695 7.58563 1.65569 7.31703 1.45765 7.11899C1.25961 6.92095 0.99101 6.80969 0.710938 6.80969V4.43297H13.2891V6.80969C13.1504 6.80952 13.013 6.83667 12.8849 6.8896C12.7567 6.94252 12.6402 7.02017 12.542 7.11812Z" fill="#FBDD6B"/>
<path d="M12.542 7.11812C12.3942 7.26587 12.2936 7.45412 12.2528 7.65907C12.212 7.86402 12.2329 8.07647 12.3129 8.26953C12.3929 8.4626 12.5283 8.62761 12.702 8.7437C12.8758 8.85979 13.0801 8.92174 13.2891 8.92172V11.2984H0.710938V8.92172C0.99101 8.92172 1.25961 8.81046 1.45765 8.61242C1.65569 8.41438 1.76695 8.14578 1.76695 7.8657C1.76695 7.58563 1.65569 7.31703 1.45765 7.11899C1.25961 6.92095 0.99101 6.80969 0.710938 6.80969V4.43297H13.2891V6.80969C13.1504 6.80952 13.013 6.83667 12.8849 6.8896C12.7567 6.94252 12.6402 7.02017 12.542 7.11812Z" fill="url(#paint0_linear_1_889)"/>
<path d="M10.2659 4.43297V5.14391C10.2659 5.19467 10.2458 5.24335 10.2099 5.27925C10.174 5.31515 10.1253 5.33531 10.0745 5.33531C10.0238 5.33531 9.97508 5.31515 9.93918 5.27925C9.90328 5.24335 9.88312 5.19467 9.88312 5.14391V4.43297H10.2659Z" fill="white"/>
<path d="M10.0745 8.16047C10.0494 8.16041 10.0245 8.16532 10.0012 8.17492C9.97796 8.18452 9.95684 8.19862 9.93905 8.2164C9.92127 8.23419 9.90717 8.25531 9.89757 8.27856C9.88797 8.30181 9.88306 8.32672 9.88312 8.35187V9.61516C9.88312 9.66592 9.90328 9.71461 9.93918 9.7505C9.97508 9.7864 10.0238 9.80656 10.0745 9.80656C10.1253 9.80656 10.174 9.7864 10.2099 9.7505C10.2458 9.71461 10.2659 9.66592 10.2659 9.61516V8.35187C10.2659 8.30113 10.2457 8.25248 10.2098 8.21659C10.1739 8.18071 10.1253 8.16053 10.0745 8.16047ZM10.0745 5.92484C10.0494 5.92479 10.0245 5.9297 10.0012 5.9393C9.97796 5.94889 9.95684 5.96299 9.93905 5.98078C9.92127 5.99856 9.90717 6.01968 9.89757 6.04293C9.88797 6.06618 9.88306 6.0911 9.88312 6.11625V7.37953C9.88312 7.4303 9.90328 7.47898 9.93918 7.51488C9.97508 7.55077 10.0238 7.57094 10.0745 7.57094C10.1253 7.57094 10.174 7.55077 10.2099 7.51488C10.2458 7.47898 10.2659 7.4303 10.2659 7.37953V6.11625C10.2659 6.0655 10.2457 6.01685 10.2098 5.98097C10.1739 5.94509 10.1253 5.9249 10.0745 5.92484Z" fill="white"/>
<path d="M10.2659 10.5875V11.2984H9.88312V10.5875C9.88312 10.5367 9.90328 10.4881 9.93918 10.4522C9.97508 10.4163 10.0238 10.3961 10.0745 10.3961C10.1253 10.3961 10.174 10.4163 10.2099 10.4522C10.2458 10.4881 10.2659 10.5367 10.2659 10.5875Z" fill="white"/>
<path d="M5.36003 6.23656H2.98386C2.93309 6.23656 2.88441 6.2164 2.84851 6.1805C2.81262 6.14461 2.79245 6.09592 2.79245 6.04516C2.79245 5.99439 2.81262 5.94571 2.84851 5.90981C2.88441 5.87392 2.93309 5.85375 2.98386 5.85375H5.36003C5.41079 5.85375 5.45948 5.87392 5.49537 5.90981C5.53127 5.94571 5.55143 5.99439 5.55143 6.04516C5.55143 6.09592 5.53127 6.14461 5.49537 6.1805C5.45948 6.2164 5.41079 6.23656 5.36003 6.23656Z" fill="white"/>
<path d="M7.73609 7.45019H2.98386C2.93309 7.45019 2.88441 7.43002 2.84851 7.39413C2.81262 7.35823 2.79245 7.30955 2.79245 7.25878C2.79245 7.20802 2.81262 7.15933 2.84851 7.12344C2.88441 7.08754 2.93309 7.06738 2.98386 7.06738H7.73609C7.78686 7.06738 7.83554 7.08754 7.87144 7.12344C7.90733 7.15933 7.9275 7.20802 7.9275 7.25878C7.9275 7.30955 7.90733 7.35823 7.87144 7.39413C7.83554 7.43002 7.78686 7.45019 7.73609 7.45019Z" fill="white"/>
<path d="M7.73609 8.66403H2.98386C2.93309 8.66403 2.88441 8.64386 2.84851 8.60797C2.81262 8.57207 2.79245 8.52339 2.79245 8.47262C2.79245 8.42186 2.81262 8.37318 2.84851 8.33728C2.88441 8.30138 2.93309 8.28122 2.98386 8.28122H7.73609C7.78686 8.28122 7.83554 8.30138 7.87144 8.33728C7.90733 8.37318 7.9275 8.42186 7.9275 8.47262C7.9275 8.52339 7.90733 8.57207 7.87144 8.60797C7.83554 8.64386 7.78686 8.66403 7.73609 8.66403Z" fill="white"/>
<path d="M7.73609 9.87777H2.98386C2.93309 9.87777 2.88441 9.8576 2.84851 9.8217C2.81262 9.78581 2.79245 9.73712 2.79245 9.68636C2.79245 9.6356 2.81262 9.58691 2.84851 9.55102C2.88441 9.51512 2.93309 9.49495 2.98386 9.49495H7.73609C7.78686 9.49495 7.83554 9.51512 7.87144 9.55102C7.90733 9.58691 7.9275 9.6356 7.9275 9.68636C7.9275 9.73712 7.90733 9.78581 7.87144 9.8217C7.83554 9.8576 7.78686 9.87777 7.73609 9.87777Z" fill="white"/>
<defs>
<linearGradient id="paint0_linear_1_889" x1="6.99984" y1="11.2993" x2="6.99984" y2="4.43236" gradientUnits="userSpaceOnUse">
<stop stop-color="#FF9900"/>
<stop offset="0.11" stop-color="#FFA200"/>
<stop offset="0.37" stop-color="#FFB300"/>
<stop offset="0.65" stop-color="#FFBD00"/>
<stop offset="1" stop-color="#FFC100"/>
</linearGradient>
</defs>
</svg>
