<svg width="14" height="14" viewBox="0 0 14 14" fill="none" xmlns="http://www.w3.org/2000/svg">
<path d="M8.86049 8.95032L8.24955 8.40792C8.09083 8.26701 8 8.06492 8 7.85267V6.69757C8 6.45996 8.19263 6.26734 8.43023 6.26734C8.66784 6.26734 8.86049 6.45996 8.86049 6.69757V8.95032Z" fill="#EFB8B2"/>
<path d="M8.86037 6.69757V8.95028L8.5544 8.67859V6.66602C8.5544 6.54724 8.50627 6.43973 8.42837 6.36182C8.39618 6.32963 8.35899 6.30259 8.31812 6.28215C8.35385 6.27249 8.39135 6.26734 8.43013 6.26734C8.54907 6.26734 8.6566 6.31546 8.73433 6.39337C8.81224 6.47127 8.86037 6.57879 8.86037 6.69757Z" fill="#EAA69E"/>
<path d="M9.26441 9.25666L9.62445 9.67087C9.67789 9.73235 9.70733 9.81105 9.70733 9.89252V10.5402L11.63 10.4872V9.89252C11.63 9.81107 11.6595 9.73235 11.7129 9.67087L12.073 9.25666L10.6361 8.95044L9.26441 9.25666Z" fill="#F05543"/>
<path d="M12.073 9.2566L11.7129 9.67074C11.6595 9.73222 11.63 9.81093 11.63 9.89236V10.2875H11.2866V9.89236C11.2866 9.81093 11.2806 9.69922 11.3341 9.63774L11.6476 9.2566H12.073Z" fill="#F05543"/>
<path d="M9.74046 7.78406H8.81226V4.25682C8.81226 4.00051 9.02004 3.79272 9.27635 3.79272C9.53266 3.79272 9.74044 4.00051 9.74044 4.25682V7.78406H9.74046Z" fill="#EFB8B2"/>
<path d="M9.74022 4.25674V7.23518C9.74022 7.30182 9.68614 7.3559 9.6195 7.3559C9.55286 7.3559 9.49878 7.30182 9.49878 7.23518V3.84937C9.53773 3.87077 9.5733 3.89749 9.60436 3.92855C9.68823 4.01257 9.74022 4.12846 9.74022 4.25674Z" fill="#EAA69E"/>
<path d="M10.6687 7.7841H9.74048V3.46409C9.7405 3.20778 9.94828 3 10.2046 3C10.4609 3 10.6687 3.20778 10.6687 3.46409V7.7841Z" fill="#EFB8B2"/>
<path d="M10.6687 3.46426V5.58481C10.6685 5.65161 10.6146 5.70536 10.548 5.70536C10.4813 5.70536 10.4274 5.65161 10.4272 5.58481V3.05688C10.4662 3.07829 10.5016 3.10501 10.5327 3.13607C10.6167 3.21993 10.6687 3.33613 10.6687 3.46426Z" fill="#EAA69E"/>
<path d="M11.5967 7.78405H10.6685V3.96995C10.6685 3.71364 10.8762 3.50586 11.1326 3.50586C11.3889 3.50586 11.5966 3.71364 11.5966 3.96995V7.78405H11.5967Z" fill="#EFB8B2"/>
<path d="M11.5967 3.97012V6.20712C11.5965 6.27392 11.5426 6.32767 11.4759 6.32767C11.4093 6.32767 11.3554 6.27392 11.3552 6.20712V3.56274C11.3942 3.58415 11.4296 3.61087 11.4607 3.64193C11.5447 3.72596 11.5967 3.84184 11.5967 3.97012Z" fill="#EAA69E"/>
<path d="M12.5251 7.78403H11.5969V4.69725C11.5969 4.44094 11.8047 4.23316 12.061 4.23316C12.3173 4.23316 12.5251 4.44094 12.5251 4.69725V7.78403H12.5251Z" fill="#EFB8B2"/>
<path d="M12.5251 4.69736V7.78413H12.2032V4.69736C12.2032 4.56923 12.1512 4.45303 12.0672 4.36917C12.0204 4.32233 11.9636 4.28531 11.9002 4.26181C11.9502 4.2433 12.0044 4.23316 12.0609 4.23316C12.1891 4.23316 12.3053 4.28514 12.3891 4.36916C12.4731 4.45303 12.5251 4.56925 12.5251 4.69736Z" fill="#EAA69E"/>
<path d="M8.81225 5.9624H9.74046V7.78397H8.81225V5.9624Z" fill="#E7402D"/>
<path d="M9.74048 5.47168H10.6687V7.78409H9.74048V5.47168Z" fill="#E7402D"/>
<path d="M10.6687 5.78833H11.5969V7.60989H10.6687V5.78833Z" fill="#E7402D"/>
<path d="M11.3552 5.78833H11.5966V7.6099H11.3552V5.78833Z" fill="#D4311E"/>
<path d="M10.4272 5.47168H10.6687V7.29325H10.4272V5.47168Z" fill="#D4311E"/>
<path d="M9.49903 5.9624H9.74043V7.78397H9.49903V5.9624Z" fill="#D4311E"/>
<path d="M11.5969 6.14356H12.5251V7.57732H11.5969V6.14356Z" fill="#E7402D"/>
<path d="M12.2031 6.14356H12.525V7.61001H12.2031V6.14356Z" fill="#D4311E"/>
<path d="M11.8756 11.0001H9.46145C9.41168 11.0001 9.37134 10.9597 9.37134 10.91V10.3777C9.37134 10.3279 9.41168 10.2876 9.46145 10.2876H11.8756C11.9253 10.2876 11.9657 10.3279 11.9657 10.3777V10.91C11.9657 10.9597 11.9254 11.0001 11.8756 11.0001Z" fill="#E7402D"/>
<path d="M11.9658 10.3775V10.9098C11.9658 10.9595 11.9256 10.9999 11.8759 10.9999H11.554C11.6037 10.9999 11.6439 10.9595 11.6439 10.9098V10.3775C11.6439 10.3278 11.6037 10.2874 11.554 10.2874H11.8759C11.9256 10.2874 11.9658 10.3278 11.9658 10.3775Z" fill="#E7402D"/>
<path d="M12.0514 9.25671H9.28593C9.02433 9.25671 8.81226 9.04465 8.81226 8.78304V7.33427C8.81226 7.07268 9.02432 6.8606 9.28593 6.8606H12.0514C12.313 6.8606 12.525 7.07266 12.525 7.33427V8.78304C12.525 9.04465 12.313 9.25671 12.0514 9.25671Z" fill="#A04747"/>
<path d="M12.5251 7.33429V8.78302C12.5251 9.04457 12.3129 9.25671 12.0514 9.25671H11.7295C11.991 9.25671 12.2032 9.04457 12.2032 8.78302V7.33429C12.2032 7.07258 11.991 6.8606 11.7295 6.8606H12.0514C12.3129 6.8606 12.5251 7.07257 12.5251 7.33429Z" fill="#A04747"/>
<path d="M11.0121 8.35333H10.3253C10.1625 8.35333 10.0305 8.22133 10.0305 8.0585C10.0305 7.89568 10.1625 7.76368 10.3253 7.76368H11.0121C11.1749 7.76368 11.3069 7.89568 11.3069 8.0585C11.3069 8.22133 11.1749 8.35333 11.0121 8.35333Z" fill="#F05543"/>
<path d="M11.3067 8.05838C11.3067 8.13982 11.2737 8.21354 11.2202 8.26697C11.1669 8.32025 11.0932 8.35324 11.0118 8.35324H10.6694C10.7509 8.35324 10.8246 8.32024 10.878 8.26697C10.9313 8.21354 10.9643 8.13982 10.9643 8.05838C10.9643 7.89566 10.8323 7.76368 10.6694 7.76368H11.0118C11.1747 7.76368 11.3067 7.89566 11.3067 8.05838Z" fill="#F05543"/>
<path d="M5.66466 8.95032L6.2756 8.40792C6.43432 8.26701 6.52515 8.06492 6.52515 7.85267V6.69757C6.52515 6.45996 6.33252 6.26734 6.09491 6.26734C5.8573 6.26734 5.66466 6.45996 5.66466 6.69757V8.95032Z" fill="#EFB8B2"/>
<path d="M5.66478 6.69757V8.95028L5.97075 8.67859V6.66602C5.97075 6.54724 6.01887 6.43973 6.09678 6.36182C6.12897 6.32963 6.16616 6.30259 6.20703 6.28215C6.1713 6.27249 6.1338 6.26734 6.09502 6.26734C5.97608 6.26734 5.86855 6.31546 5.79081 6.39337C5.71291 6.47127 5.66478 6.57879 5.66478 6.69757Z" fill="#EAA69E"/>
<path d="M5.26074 9.25666L4.90069 9.67087C4.84726 9.73235 4.81782 9.81105 4.81782 9.89252V10.5402L2.89511 10.4872V9.89252C2.89511 9.81107 2.86569 9.73235 2.81224 9.67087L2.45219 9.25666L3.88904 8.95044L5.26074 9.25666Z" fill="#F05543"/>
<path d="M2.45216 9.2566L2.81221 9.67074C2.86565 9.73222 2.8951 9.81093 2.8951 9.89236V10.2875H3.23857V9.89236C3.23857 9.81093 3.24452 9.69922 3.19108 9.63774L2.87755 9.2566H2.45216Z" fill="#F05543"/>
<path d="M4.78469 7.78406H5.71289V4.25682C5.71289 4.00051 5.50511 3.79272 5.2488 3.79272C4.99248 3.79272 4.7847 4.00051 4.7847 4.25682V7.78406H4.78469Z" fill="#EFB8B2"/>
<path d="M4.78493 4.25674V7.23518C4.78493 7.30182 4.83901 7.3559 4.90565 7.3559C4.97229 7.3559 5.02637 7.30182 5.02637 7.23518V3.84937C4.98741 3.87077 4.95185 3.89749 4.92079 3.92855C4.83691 4.01257 4.78493 4.12846 4.78493 4.25674Z" fill="#EAA69E"/>
<path d="M3.85646 7.7841H4.78467V3.46409C4.78465 3.20778 4.57687 3 4.32056 3C4.06424 3 3.85646 3.20778 3.85646 3.46409V7.7841Z" fill="#EFB8B2"/>
<path d="M3.85646 3.46426V5.58481C3.85662 5.65161 3.91054 5.70536 3.97718 5.70536C4.04382 5.70536 4.09773 5.65161 4.0979 5.58481V3.05688C4.05895 3.07829 4.02354 3.10501 3.99248 3.13607C3.90845 3.21993 3.85646 3.33613 3.85646 3.46426Z" fill="#EAA69E"/>
<path d="M2.92848 7.78405H3.85669V3.96995C3.85669 3.71364 3.64891 3.50586 3.39259 3.50586C3.13628 3.50586 2.9285 3.71364 2.9285 3.96995V7.78405H2.92848Z" fill="#EFB8B2"/>
<path d="M2.92848 3.97012V6.20712C2.92864 6.27392 2.98256 6.32767 3.0492 6.32767C3.11584 6.32767 3.16976 6.27392 3.16992 6.20712V3.56274C3.13096 3.58415 3.09556 3.61087 3.0645 3.64193C2.98048 3.72596 2.92848 3.84184 2.92848 3.97012Z" fill="#EAA69E"/>
<path d="M2.00001 7.78403H2.92822V4.69725C2.92822 4.44094 2.72044 4.23316 2.46412 4.23316C2.20781 4.23316 2.00003 4.44094 2.00003 4.69725V7.78403H2.00001Z" fill="#EFB8B2"/>
<path d="M2.00003 4.69736V7.78413H2.32193V4.69736C2.32193 4.56923 2.37392 4.45303 2.45793 4.36917C2.50478 4.32233 2.56159 4.28531 2.625 4.26181C2.57493 4.2433 2.5207 4.23316 2.4642 4.23316C2.33607 4.23316 2.21987 4.28514 2.13601 4.36916C2.05203 4.45303 2.00003 4.56925 2.00003 4.69736Z" fill="#EAA69E"/>
<path d="M5.71289 5.9624H4.78469V7.78397H5.71289V5.9624Z" fill="#E7402D"/>
<path d="M4.78467 5.47168H3.85646V7.78409H4.78467V5.47168Z" fill="#E7402D"/>
<path d="M3.85645 5.78833H2.92824V7.60989H3.85645V5.78833Z" fill="#E7402D"/>
<path d="M3.16992 5.78833H2.92851V7.6099H3.16992V5.78833Z" fill="#D4311E"/>
<path d="M4.0979 5.47168H3.85649V7.29325H4.0979V5.47168Z" fill="#D4311E"/>
<path d="M5.02612 5.9624H4.78471V7.78397H5.02612V5.9624Z" fill="#D4311E"/>
<path d="M2.92822 6.14356H2.00001V7.57732H2.92822V6.14356Z" fill="#E7402D"/>
<path d="M2.32202 6.14356H2.00011V7.61001H2.32202V6.14356Z" fill="#D4311E"/>
<path d="M2.64957 11.0001H5.0637C5.11346 11.0001 5.15381 10.9597 5.15381 10.91V10.3777C5.15381 10.3279 5.11346 10.2876 5.0637 10.2876H2.64957C2.5998 10.2876 2.55946 10.3279 2.55946 10.3777V10.91C2.55945 10.9597 2.59979 11.0001 2.64957 11.0001Z" fill="#E7402D"/>
<path d="M2.55931 10.3775V10.9098C2.55931 10.9595 2.59955 10.9999 2.64928 10.9999H2.97119C2.92145 10.9999 2.88122 10.9595 2.88122 10.9098V10.3775C2.88122 10.3278 2.92145 10.2874 2.97119 10.2874H2.64928C2.59956 10.2874 2.55931 10.3278 2.55931 10.3775Z" fill="#E7402D"/>
<path d="M2.47376 9.25671H5.23922C5.50081 9.25671 5.71289 9.04465 5.71289 8.78304V7.33427C5.71289 7.07268 5.50083 6.8606 5.23922 6.8606H2.47378C2.21218 6.8606 2.00011 7.07266 2.00011 7.33427V8.78304C2.00011 9.04465 2.21217 9.25671 2.47376 9.25671Z" fill="#A04747"/>
<path d="M2.00006 7.33429V8.78302C2.00006 9.04457 2.2122 9.25671 2.47374 9.25671H2.79565C2.5341 9.25671 2.32196 9.04457 2.32196 8.78302V7.33429C2.32196 7.07258 2.5341 6.8606 2.79565 6.8606H2.47374C2.2122 6.8606 2.00006 7.07257 2.00006 7.33429Z" fill="#A04747"/>
<path d="M3.51306 8.35333H4.1998C4.36263 8.35333 4.49463 8.22133 4.49463 8.0585C4.49463 7.89568 4.36263 7.76368 4.1998 7.76368H3.51306C3.35024 7.76368 3.21824 7.89568 3.21824 8.0585C3.21824 8.22133 3.35024 8.35333 3.51306 8.35333Z" fill="#F05543"/>
<path d="M3.21849 8.05838C3.21849 8.13982 3.25149 8.21354 3.30493 8.26697C3.35821 8.32025 3.43193 8.35324 3.51337 8.35324H3.85571C3.77427 8.35324 3.70055 8.32024 3.64712 8.26697C3.59384 8.21354 3.56085 8.13982 3.56085 8.05838C3.56085 7.89566 3.69284 7.76368 3.85571 7.76368H3.51337C3.35048 7.76368 3.21849 7.89566 3.21849 8.05838Z" fill="#F05543"/>
</svg>
